<?xml version="1.0" encoding="UTF-8"?>
<!DOCTYPE svg PUBLIC "-//W3C//DTD SVG 1.1//EN" "http://www.w3.org/Graphics/SVG/1.1/DTD/svg11.dtd">
<!-- Creator: CorelDRAW X7.4 EN Portable -->
<svg xmlns="http://www.w3.org/2000/svg" xml:space="preserve" width="1354px" height="987px" version="1.1" style="shape-rendering:geometricPrecision; text-rendering:geometricPrecision; image-rendering:optimizeQuality; fill-rule:evenodd; clip-rule:evenodd"
viewBox="0 0 696 507"
 xmlns:xlink="http://www.w3.org/1999/xlink">
 <defs>
  <style type="text/css">
   <![CDATA[
    .fil1 {fill:#01BAF1}
    .fil4 {fill:#221F21}
    .fil6 {fill:#40423E}
    .fil0 {fill:#7FC241}
    .fil5 {fill:#DBF2FD}
    .fil2 {fill:#EB1C24}
    .fil3 {fill:#F2F1EF}
   ]]>
  </style>
 </defs>
 <g id="Layer_x0020_1">
  <metadata id="CorelCorpID_0Corel-Layer"/>
  <g id="_442981048">
   <path class="fil0" d="M491 291l-8 19c0,12 -19,37 -26,41 -9,5 -20,1 -24,-5 -5,-7 -4,-28 4,-23 -1,-9 2,-13 6,-19 7,-7 7,-7 11,-16 -6,-7 -13,-9 -20,-13 -5,-2 -15,-10 -18,-13 -10,-9 -17,-23 -26,-36l-13 0c3,11 3,19 1,30 -2,13 -7,16 -10,24 0,10 -3,13 -8,18 -7,7 -8,6 -13,11 3,6 3,5 11,8 11,-33 30,-17 32,-13 6,11 -11,32 -20,56 0,11 -5,20 -16,20 -17,1 -15,-7 -20,-17 -6,-10 -13,-11 -19,-18 -10,-11 0,-20 2,-24l1 -8c-17,-5 -28,-14 -37,-24 -4,-5 -9,-11 -12,-17 -5,-7 -7,-13 -12,-19l-17 4c3,21 0,41 -11,56l1 2c0,19 -35,47 -73,47 -59,0 -69,-39 -78,-48 -22,9 -52,3 -68,21 13,10 31,9 44,37 5,9 7,20 12,29 7,12 11,9 14,29 -8,2 -14,2 -17,8l0 5 18 1c4,34 9,46 44,44l1 9c1,1 1,2 2,2l2 6c10,2 16,0 26,0 7,0 41,8 66,-5l1 -17c6,0 44,27 145,6 17,-4 37,-2 54,-1 17,1 31,-7 46,-7 36,-1 62,-7 80,-7 13,-1 10,4 23,-2 15,-8 6,-1 19,-1 10,0 8,-9 20,-9 -1,8 -4,3 -8,11l21 -9c1,-7 -4,5 -1,-6 1,-5 3,-5 5,-10 2,-6 4,-19 4,-25 1,-33 -6,-27 16,-43 -27,-42 10,-22 12,-22 4,-13 4,-63 4,-63 1,-5 6,-10 6,-16 0,-9 -35,-55 -27,-64 11,-7 24,-1 31,4 13,9 11,12 20,23 12,-32 -49,-40 -60,-48 -14,15 -23,12 -39,22 -16,9 -21,15 -31,29 -16,21 -35,47 -73,46z"/>
   <path class="fil1" d="M74 268c0,-14 -1,-37 10,-44 5,-14 1,-12 15,-18 15,8 13,4 18,10 11,12 -16,66 17,85l21 -2c-16,-18 -9,-22 -9,-22l1 -4c-8,2 0,-22 4,-27 5,-2 18,-5 24,-1 7,4 8,12 9,21 7,13 1,21 -4,31l14 -1 3 -2c1,-31 -13,-49 -26,-67 -4,-5 -6,-8 -10,-13 -7,-8 -28,-19 -10,-41 3,-6 9,-27 30,-10 28,22 49,58 59,94l17 -4c-7,-19 -52,-118 -29,-132 4,-16 18,-24 31,-13 8,7 8,30 11,42 7,22 18,59 30,76l28 3c-4,-19 -35,-54 -14,-63 1,-11 0,-10 11,-17 18,-10 23,5 36,31 6,14 12,29 16,46l13 0c-5,-25 -7,-28 1,-53 7,-2 0,0 9,-17 12,-21 34,-14 43,-13 9,1 9,2 20,8 2,-10 3,-10 8,-16 1,-7 1,-8 5,-13l5 -3c28,-23 45,-3 66,15 37,31 73,9 93,31 5,-6 5,-4 10,-11 24,-39 -1,-28 3,-45l12 -2c17,27 -15,59 -18,71 13,1 14,-4 19,-13 14,-19 26,-43 30,-68 0,-1 -1,-1 -1,-1 0,1 -1,0 -2,-1 -12,-6 -10,-10 -22,-2 -3,-5 -9,-12 -9,-16 -2,-10 5,-11 -2,-21 -3,-5 -12,-12 -22,-5 -8,6 4,2 -8,6 -13,-8 -27,-53 -93,-46 -8,0 -23,3 -30,3 -11,0 -5,-8 -23,-11 -21,-3 -48,-2 -66,4 -10,-7 4,-7 -13,-7 -2,0 -12,3 -16,4l-98 17c-47,7 -89,10 -130,27 1,10 0,2 3,10 -36,15 -75,19 -90,25 -38,16 -38,33 -47,45 -5,5 -2,1 -5,4 -3,4 -3,5 -5,9 -22,-6 -5,-1 -17,-7 0,17 0,33 4,49 4,19 13,11 17,34 2,12 14,26 21,30 6,4 4,2 9,5 8,4 2,0 7,5 6,6 7,7 16,11z"/>
   <path class="fil2" d="M487 120l6 20c-9,-5 -7,-6 -11,-13 0,0 -1,-1 -1,-1 0,-1 -1,-1 -1,-2 -5,12 -8,23 4,29 14,8 20,-6 31,-9 7,13 37,31 51,38l-21 29c-12,16 -27,34 -52,31 -1,-28 -10,-54 -22,-74 -3,-5 -7,-9 -11,-13 -9,-7 -9,-2 -13,-2 -10,-2 -21,-15 -36,-1 -32,29 3,102 54,113 -8,47 -27,38 -22,64 18,8 24,-2 32,-17 8,-14 12,-23 16,-41 72,-5 63,-57 117,-80 4,-2 41,-11 23,-28 -13,-13 -38,17 -103,-39 -11,-10 -28,-13 -41,-4z"/>
   <path class="fil3" d="M151 173c0,12 12,22 17,28 9,9 13,15 20,25 11,16 26,51 9,68l-3 2c-15,16 -39,16 -60,5 -33,-19 -6,-73 -17,-85 -5,-6 -3,-2 -18,-10 -14,6 -10,4 -15,18 -7,53 0,93 36,112 43,23 89,7 109,-23 11,-15 14,-35 11,-56 -10,-36 -31,-72 -59,-94 -21,-17 -27,4 -30,10z"/>
   <path class="fil3" d="M228 121c7,49 45,189 113,176 16,-4 19,-9 27,-17 3,-8 8,-11 10,-24 2,-11 2,-19 -1,-30 -4,-17 -10,-32 -16,-46 -13,-26 -18,-41 -36,-31 -11,7 -10,6 -11,17 4,13 46,82 22,90 -16,5 -32,-18 -36,-30 -12,-17 -23,-54 -30,-76 -3,-12 -3,-35 -11,-42 -13,-11 -27,-3 -31,13z"/>
   <path class="fil2" d="M160 164c5,6 12,11 17,16 -9,-3 -8,-7 -20,-9 0,13 6,16 19,31 25,27 50,80 20,102 -20,15 -58,15 -74,-6 -22,-28 -2,-72 -11,-82 -5,2 -5,-3 -11,18l0 -23c-16,6 -14,32 -14,53 1,39 20,69 61,76 63,10 110,-40 79,-109 -7,-16 -17,-31 -27,-42 -5,-6 -25,-34 -39,-25z"/>
   <path class="fil2" d="M329 150c4,10 6,7 8,19l-7 -8c-6,-6 -1,-5 -10,-3 -5,14 29,52 28,85 0,20 -18,23 -32,13 -13,-10 -15,-19 -24,-34 -35,-60 -25,-130 -53,-111 -12,8 -2,32 2,45 12,48 43,135 89,137 32,2 50,-31 41,-69 -4,-18 -21,-72 -42,-74z"/>
   <path class="fil4" d="M257 253c5,6 7,12 12,19 3,6 8,12 12,17 9,10 20,19 37,24l7 -8c10,-1 15,1 22,4 5,-5 6,-4 13,-11 5,-5 8,-8 8,-18 -8,8 -11,13 -27,17 -68,13 -106,-127 -113,-176 -23,14 22,113 29,132z"/>
   <path class="fil3" d="M347 309c-7,-3 -12,-5 -22,-4l-7 8 -1 8c1,5 6,10 11,14 8,7 5,0 12,13 7,14 14,25 30,12 9,-24 26,-45 20,-56 -2,-4 -21,-20 -32,13 -8,-3 -8,-2 -11,-8z"/>
   <path class="fil3" d="M568 280c3,7 6,7 12,12 7,5 6,4 10,14 7,14 14,18 28,9 8,-26 29,-45 20,-57 -5,-4 -12,-9 -21,-5 -9,5 -6,12 -13,20 -5,-5 -13,-15 -23,-15 -6,0 -9,3 -12,7 -4,6 -4,7 -1,15z"/>
   <path class="fil4" d="M74 268c0,19 3,29 5,46 9,9 19,48 78,48 38,0 73,-28 73,-47l-1 -2c-20,30 -66,46 -109,23 -36,-19 -43,-59 -36,-112 -11,7 -10,30 -10,44z"/>
   <path class="fil1" d="M482 176c5,20 12,29 15,55 14,-1 24,-1 33,-10 4,-4 14,-16 17,-24 -13,-7 -31,-18 -39,-30 -9,5 -12,10 -26,9z"/>
   <path class="fil2" d="M359 327c-10,-5 -18,-19 -27,-18 -1,0 -18,8 0,22 6,4 9,8 14,16 3,7 3,14 14,13 9,-1 9,-9 13,-17 6,-12 17,-27 11,-39 -15,-4 -22,8 -25,23z"/>
   <path class="fil2" d="M606 283c-10,-8 -12,-20 -30,-19 2,5 4,8 8,9l-13 -3c0,15 9,14 17,23 12,13 6,22 18,22 12,0 29,-45 28,-54 -20,-13 -20,7 -28,22z"/>
   <path class="fil4" d="M390 226c9,13 16,27 26,36 3,3 13,11 18,13 7,4 14,6 20,13l6 -18c-8,-6 -24,-6 -47,-35 -25,-31 -18,-53 -22,-62 -8,25 -6,28 -1,53z"/>
   <path class="fil4" d="M491 291c38,1 57,-25 73,-46 10,-14 15,-20 31,-29 16,-10 25,-7 39,-22l1 -8c-34,15 -41,12 -68,47 -17,21 -32,42 -71,43l-5 15z"/>
   <path class="fil4" d="M463 151c3,7 4,5 9,11 3,4 6,9 10,14 14,1 17,-4 26,-9 8,12 26,23 39,30l10 -12c-26,-18 -18,-11 -40,-30 -1,-1 -1,-1 -2,-1 -2,-3 0,-1 -3,-3 -15,15 -42,13 -41,-16 -5,6 -6,6 -8,16z"/>
   <path class="fil4" d="M197 294c17,-17 2,-52 -9,-68 -7,-10 -11,-16 -20,-25 -5,-6 -17,-16 -17,-28 -18,22 3,33 10,41 4,5 6,8 10,13 13,18 27,36 26,67z"/>
   <path class="fil5" d="M426 171c-4,15 -1,29 7,41 6,8 20,19 33,23 -2,-22 -19,-77 -40,-64z"/>
   <path class="fil3" d="M147 273l2 7c6,3 14,7 23,3 9,-3 7,-7 12,-17 -1,-9 -2,-17 -9,-21 -6,-4 -19,-1 -24,1 -4,5 -12,29 -4,27z"/>
   <path class="fil4" d="M618 315c-14,9 -21,5 -28,-9 -4,-10 -3,-9 -10,-14 -6,-5 -9,-5 -12,-12 -3,-1 -2,-6 -8,2 -8,13 11,22 16,27 12,13 7,29 33,26 4,-6 9,-10 9,-20z"/>
   <path class="fil4" d="M370 360c-16,13 -23,2 -30,-12 -7,-13 -4,-6 -12,-13 -5,-4 -10,-9 -11,-14 -2,4 -12,13 -2,24 6,7 13,8 19,18 5,10 3,18 20,17 11,0 16,-9 16,-20z"/>
   <path class="fil6" d="M147 273l-1 4c0,0 -7,4 9,22l-21 2c21,11 45,11 60,-5l-14 1c5,-10 11,-18 4,-31 -5,10 -3,14 -12,17 -9,4 -17,0 -23,-3l-2 -7z"/>
   <path class="fil4" d="M328 229c5,8 7,16 8,27 24,-8 -18,-77 -22,-90 -21,9 10,44 14,63z"/>
   <path class="fil0" d="M640 456c15,-6 26,-36 19,-56 -13,0 -16,12 -14,23 3,20 -10,17 -5,33z"/>
   <path class="fil4" d="M437 323c-8,-5 -9,16 -4,23 4,6 15,10 24,5 7,-4 26,-29 26,-41 -2,5 -9,15 -13,19 -6,9 -11,10 -25,8 -5,-7 -5,-5 -8,-14z"/>
   <path class="fil2" d="M163 260c-1,-2 -2,-5 -3,-6l-3 -4c0,0 0,-1 -1,-1 -18,18 -1,34 13,30 14,-5 14,-24 -2,-32l-4 13z"/>
   <path class="fil4" d="M460 227c0,-7 -6,-25 -9,-31 -4,-10 -10,-19 -20,-20 -6,17 3,20 9,29 5,8 3,14 20,22z"/>
   <path class="fil0" d="M336 256c-1,-11 -3,-19 -8,-27l-28 -3c4,12 20,35 36,30z"/>
  </g>
 </g>
</svg>
